<?xml version="1.0" encoding="utf-8" standalone="no"?>
<!DOCTYPE svg PUBLIC "-//W3C//DTD SVG 1.1//EN"
  "http://www.w3.org/Graphics/SVG/1.1/DTD/svg11.dtd">
<svg height="261.19625pt" version="1.1" viewBox="0 0 165.994262 261.19625" width="165.994262pt" xmlns="http://www.w3.org/2000/svg" xmlns:xlink="http://www.w3.org/1999/xlink">
 <metadata>
  <rdf:RDF xmlns:cc="http://creativecommons.org/ns#" xmlns:dc="http://purl.org/dc/elements/1.1/" xmlns:rdf="http://www.w3.org/1999/02/22-rdf-syntax-ns#">
   <cc:Work>
    <dc:type rdf:resource="http://purl.org/dc/dcmitype/StillImage"/>
    <dc:date>2021-08-09T15:28:33.510007</dc:date>
    <dc:format>image/svg+xml</dc:format>
    <dc:creator>
     <cc:Agent>
      <dc:title>Matplotlib v3.4.2, https://matplotlib.org/</dc:title>
     </cc:Agent>
    </dc:creator>
   </cc:Work>
  </rdf:RDF>
 </metadata>
 <defs>
  <style type="text/css">*{stroke-linecap:butt;stroke-linejoin:round;}</style>
 </defs>
 <g id="figure_1">
  <g id="patch_1">
   <path d="M 0 261.19625 
L 165.994262 261.19625 
L 165.994262 0 
L 0 0 
z
" style="fill:none;"/>
  </g>
  <g id="axes_1">
   <g id="patch_2">
    <path d="M 60.754688 224.64 
L 158.794262 224.64 
L 158.794262 7.2 
L 60.754688 7.2 
z
" style="fill:#ffffff;"/>
   </g>
   <g id="PathCollection_1">
    <defs>
     <path d="M 0 3 
C 0.795609 3 1.55874 2.683901 2.12132 2.12132 
C 2.683901 1.55874 3 0.795609 3 0 
C 3 -0.795609 2.683901 -1.55874 2.12132 -2.12132 
C 1.55874 -2.683901 0.795609 -3 0 -3 
C -0.795609 -3 -1.55874 -2.683901 -2.12132 -2.12132 
C -2.683901 -1.55874 -3 -0.795609 -3 0 
C -3 0.795609 -2.683901 1.55874 -2.12132 2.12132 
C -1.55874 2.683901 -0.795609 3 0 3 
z
" id="m49e4315eb8" style="stroke:#1f77b4;"/>
    </defs>
    <g clip-path="url(#p1d2fa6dc19)">
     <use style="fill:#1f77b4;stroke:#1f77b4;" x="95.911235" xlink:href="#m49e4315eb8" y="115.45734"/>
     <use style="fill:#1f77b4;stroke:#1f77b4;" x="100.079335" xlink:href="#m49e4315eb8" y="148.830581"/>
     <use style="fill:#1f77b4;stroke:#1f77b4;" x="106.911744" xlink:href="#m49e4315eb8" y="137.726247"/>
     <use style="fill:#1f77b4;stroke:#1f77b4;" x="109.98968" xlink:href="#m49e4315eb8" y="138.90546"/>
     <use style="fill:#1f77b4;stroke:#1f77b4;" x="117.819936" xlink:href="#m49e4315eb8" y="132.912269"/>
     <use style="fill:#1f77b4;stroke:#1f77b4;" x="113.016567" xlink:href="#m49e4315eb8" y="133.995288"/>
     <use style="fill:#1f77b4;stroke:#1f77b4;" x="74.172351" xlink:href="#m49e4315eb8" y="111.517642"/>
     <use style="fill:#1f77b4;stroke:#1f77b4;" x="65.211032" xlink:href="#m49e4315eb8" y="141.841176"/>
     <use style="fill:#1f77b4;stroke:#1f77b4;" x="154.337918" xlink:href="#m49e4315eb8" y="130.588401"/>
     <use style="fill:#1f77b4;stroke:#1f77b4;" x="90.403788" xlink:href="#m49e4315eb8" y="145.875321"/>
     <use style="fill:#1f77b4;stroke:#1f77b4;" x="106.136503" xlink:href="#m49e4315eb8" y="147.476801"/>
     <use style="fill:#1f77b4;stroke:#1f77b4;" x="87.227901" xlink:href="#m49e4315eb8" y="81.087202"/>
     <use style="fill:#1f77b4;stroke:#1f77b4;" x="134.008677" xlink:href="#m49e4315eb8" y="152.125683"/>
     <use style="fill:#1f77b4;stroke:#1f77b4;" x="116.917114" xlink:href="#m49e4315eb8" y="180.144256"/>
     <use style="fill:#1f77b4;stroke:#1f77b4;" x="87.282823" xlink:href="#m49e4315eb8" y="168.105855"/>
     <use style="fill:#1f77b4;stroke:#1f77b4;" x="101.940457" xlink:href="#m49e4315eb8" y="152.352704"/>
     <use style="fill:#1f77b4;stroke:#1f77b4;" x="84.960822" xlink:href="#m49e4315eb8" y="177.058207"/>
     <use style="fill:#1f77b4;stroke:#1f77b4;" x="72.247396" xlink:href="#m49e4315eb8" y="91.876589"/>
     <use style="fill:#1f77b4;stroke:#1f77b4;" x="91.756488" xlink:href="#m49e4315eb8" y="119.281735"/>
     <use style="fill:#1f77b4;stroke:#1f77b4;" x="100.011753" xlink:href="#m49e4315eb8" y="169.096167"/>
     <use style="fill:#1f77b4;stroke:#1f77b4;" x="90.841683" xlink:href="#m49e4315eb8" y="180.576807"/>
     <use style="fill:#1f77b4;stroke:#1f77b4;" x="87.898302" xlink:href="#m49e4315eb8" y="171.951894"/>
     <use style="fill:#1f77b4;stroke:#1f77b4;" x="73.118854" xlink:href="#m49e4315eb8" y="118.186565"/>
     <use style="fill:#1f77b4;stroke:#1f77b4;" x="127.623186" xlink:href="#m49e4315eb8" y="138.443471"/>
     <use style="fill:#1f77b4;stroke:#1f77b4;" x="117.415758" xlink:href="#m49e4315eb8" y="180.605074"/>
     <use style="fill:#1f77b4;stroke:#1f77b4;" x="97.331233" xlink:href="#m49e4315eb8" y="124.492265"/>
     <use style="fill:#1f77b4;stroke:#1f77b4;" x="91.619605" xlink:href="#m49e4315eb8" y="122.862023"/>
     <use style="fill:#1f77b4;stroke:#1f77b4;" x="106.860186" xlink:href="#m49e4315eb8" y="123.989621"/>
     <use style="fill:#1f77b4;stroke:#1f77b4;" x="84.432354" xlink:href="#m49e4315eb8" y="123.98639"/>
     <use style="fill:#1f77b4;stroke:#1f77b4;" x="101.140589" xlink:href="#m49e4315eb8" y="125.871638"/>
     <use style="fill:#1f77b4;stroke:#1f77b4;" x="101.575131" xlink:href="#m49e4315eb8" y="117.539492"/>
     <use style="fill:#1f77b4;stroke:#1f77b4;" x="107.541434" xlink:href="#m49e4315eb8" y="106.073385"/>
     <use style="fill:#1f77b4;stroke:#1f77b4;" x="93.080454" xlink:href="#m49e4315eb8" y="97.796213"/>
     <use style="fill:#1f77b4;stroke:#1f77b4;" x="83.188391" xlink:href="#m49e4315eb8" y="111.430585"/>
     <use style="fill:#1f77b4;stroke:#1f77b4;" x="87.610156" xlink:href="#m49e4315eb8" y="78.252784"/>
     <use style="fill:#1f77b4;stroke:#1f77b4;" x="74.076688" xlink:href="#m49e4315eb8" y="17.083636"/>
     <use style="fill:#1f77b4;stroke:#1f77b4;" x="70.524082" xlink:href="#m49e4315eb8" y="175.581446"/>
     <use style="fill:#1f77b4;stroke:#1f77b4;" x="98.169495" xlink:href="#m49e4315eb8" y="38.940475"/>
     <use style="fill:#1f77b4;stroke:#1f77b4;" x="125.596745" xlink:href="#m49e4315eb8" y="107.045198"/>
     <use style="fill:#1f77b4;stroke:#1f77b4;" x="89.29045" xlink:href="#m49e4315eb8" y="140.383141"/>
     <use style="fill:#1f77b4;stroke:#1f77b4;" x="142.924165" xlink:href="#m49e4315eb8" y="132.758646"/>
     <use style="fill:#1f77b4;stroke:#1f77b4;" x="89.85827" xlink:href="#m49e4315eb8" y="145.661192"/>
     <use style="fill:#1f77b4;stroke:#1f77b4;" x="98.965801" xlink:href="#m49e4315eb8" y="112.089421"/>
     <use style="fill:#1f77b4;stroke:#1f77b4;" x="122.383329" xlink:href="#m49e4315eb8" y="214.756364"/>
     <use style="fill:#1f77b4;stroke:#1f77b4;" x="92.742804" xlink:href="#m49e4315eb8" y="179.285109"/>
     <use style="fill:#1f77b4;stroke:#1f77b4;" x="107.407061" xlink:href="#m49e4315eb8" y="143.313267"/>
     <use style="fill:#1f77b4;stroke:#1f77b4;" x="133.338655" xlink:href="#m49e4315eb8" y="122.93681"/>
     <use style="fill:#1f77b4;stroke:#1f77b4;" x="99.747581" xlink:href="#m49e4315eb8" y="127.171329"/>
     <use style="fill:#1f77b4;stroke:#1f77b4;" x="72.006751" xlink:href="#m49e4315eb8" y="198.141751"/>
     <use style="fill:#1f77b4;stroke:#1f77b4;" x="106.112777" xlink:href="#m49e4315eb8" y="166.127767"/>
     <use style="fill:#1f77b4;stroke:#1f77b4;" x="105.814847" xlink:href="#m49e4315eb8" y="159.06666"/>
     <use style="fill:#1f77b4;stroke:#1f77b4;" x="108.282814" xlink:href="#m49e4315eb8" y="186.614907"/>
     <use style="fill:#1f77b4;stroke:#1f77b4;" x="104.0796" xlink:href="#m49e4315eb8" y="131.515202"/>
     <use style="fill:#1f77b4;stroke:#1f77b4;" x="111.008878" xlink:href="#m49e4315eb8" y="129.309631"/>
     <use style="fill:#1f77b4;stroke:#1f77b4;" x="97.880635" xlink:href="#m49e4315eb8" y="135.759147"/>
     <use style="fill:#1f77b4;stroke:#1f77b4;" x="98.829477" xlink:href="#m49e4315eb8" y="140.358428"/>
     <use style="fill:#1f77b4;stroke:#1f77b4;" x="102.428119" xlink:href="#m49e4315eb8" y="140.841304"/>
    </g>
   </g>
   <g id="matplotlib.axis_1">
    <g id="xtick_1">
     <g id="line2d_1">
      <defs>
       <path d="M 0 0 
L 0 3.5 
" id="m7f80c0edda" style="stroke:#000000;stroke-width:0.8;"/>
      </defs>
      <g>
       <use style="stroke:#000000;stroke-width:0.8;" x="64.930333" xlink:href="#m7f80c0edda" y="224.64"/>
      </g>
     </g>
     <g id="text_1">
      <!-- 1.44 -->
      <g transform="translate(53.797521 239.238438)scale(0.1 -0.1)">
       <defs>
        <path d="M 794 531 
L 1825 531 
L 1825 4091 
L 703 3866 
L 703 4441 
L 1819 4666 
L 2450 4666 
L 2450 531 
L 3481 531 
L 3481 0 
L 794 0 
L 794 531 
z
" id="DejaVuSans-31" transform="scale(0.015625)"/>
        <path d="M 684 794 
L 1344 794 
L 1344 0 
L 684 0 
L 684 794 
z
" id="DejaVuSans-2e" transform="scale(0.015625)"/>
        <path d="M 2419 4116 
L 825 1625 
L 2419 1625 
L 2419 4116 
z
M 2253 4666 
L 3047 4666 
L 3047 1625 
L 3713 1625 
L 3713 1100 
L 3047 1100 
L 3047 0 
L 2419 0 
L 2419 1100 
L 313 1100 
L 313 1709 
L 2253 4666 
z
" id="DejaVuSans-34" transform="scale(0.015625)"/>
       </defs>
       <use xlink:href="#DejaVuSans-31"/>
       <use x="63.623047" xlink:href="#DejaVuSans-2e"/>
       <use x="95.410156" xlink:href="#DejaVuSans-34"/>
       <use x="159.033203" xlink:href="#DejaVuSans-34"/>
      </g>
     </g>
    </g>
    <g id="xtick_2">
     <g id="line2d_2">
      <g>
       <use style="stroke:#000000;stroke-width:0.8;" x="115.345103" xlink:href="#m7f80c0edda" y="224.64"/>
      </g>
     </g>
     <g id="text_2">
      <!-- 1.45 -->
      <g transform="translate(104.21229 239.238438)scale(0.1 -0.1)">
       <defs>
        <path d="M 691 4666 
L 3169 4666 
L 3169 4134 
L 1269 4134 
L 1269 2991 
Q 1406 3038 1543 3061 
Q 1681 3084 1819 3084 
Q 2600 3084 3056 2656 
Q 3513 2228 3513 1497 
Q 3513 744 3044 326 
Q 2575 -91 1722 -91 
Q 1428 -91 1123 -41 
Q 819 9 494 109 
L 494 744 
Q 775 591 1075 516 
Q 1375 441 1709 441 
Q 2250 441 2565 725 
Q 2881 1009 2881 1497 
Q 2881 1984 2565 2268 
Q 2250 2553 1709 2553 
Q 1456 2553 1204 2497 
Q 953 2441 691 2322 
L 691 4666 
z
" id="DejaVuSans-35" transform="scale(0.015625)"/>
       </defs>
       <use xlink:href="#DejaVuSans-31"/>
       <use x="63.623047" xlink:href="#DejaVuSans-2e"/>
       <use x="95.410156" xlink:href="#DejaVuSans-34"/>
       <use x="159.033203" xlink:href="#DejaVuSans-35"/>
      </g>
     </g>
    </g>
    <g id="text_3">
     <!-- 1e6 -->
     <g transform="translate(139.916137 251.916563)scale(0.1 -0.1)">
      <defs>
       <path d="M 3597 1894 
L 3597 1613 
L 953 1613 
Q 991 1019 1311 708 
Q 1631 397 2203 397 
Q 2534 397 2845 478 
Q 3156 559 3463 722 
L 3463 178 
Q 3153 47 2828 -22 
Q 2503 -91 2169 -91 
Q 1331 -91 842 396 
Q 353 884 353 1716 
Q 353 2575 817 3079 
Q 1281 3584 2069 3584 
Q 2775 3584 3186 3129 
Q 3597 2675 3597 1894 
z
M 3022 2063 
Q 3016 2534 2758 2815 
Q 2500 3097 2075 3097 
Q 1594 3097 1305 2825 
Q 1016 2553 972 2059 
L 3022 2063 
z
" id="DejaVuSans-65" transform="scale(0.015625)"/>
       <path d="M 2113 2584 
Q 1688 2584 1439 2293 
Q 1191 2003 1191 1497 
Q 1191 994 1439 701 
Q 1688 409 2113 409 
Q 2538 409 2786 701 
Q 3034 994 3034 1497 
Q 3034 2003 2786 2293 
Q 2538 2584 2113 2584 
z
M 3366 4563 
L 3366 3988 
Q 3128 4100 2886 4159 
Q 2644 4219 2406 4219 
Q 1781 4219 1451 3797 
Q 1122 3375 1075 2522 
Q 1259 2794 1537 2939 
Q 1816 3084 2150 3084 
Q 2853 3084 3261 2657 
Q 3669 2231 3669 1497 
Q 3669 778 3244 343 
Q 2819 -91 2113 -91 
Q 1303 -91 875 529 
Q 447 1150 447 2328 
Q 447 3434 972 4092 
Q 1497 4750 2381 4750 
Q 2619 4750 2861 4703 
Q 3103 4656 3366 4563 
z
" id="DejaVuSans-36" transform="scale(0.015625)"/>
      </defs>
      <use xlink:href="#DejaVuSans-31"/>
      <use x="63.623047" xlink:href="#DejaVuSans-65"/>
      <use x="125.146484" xlink:href="#DejaVuSans-36"/>
     </g>
    </g>
   </g>
   <g id="matplotlib.axis_2">
    <g id="ytick_1">
     <g id="line2d_3">
      <defs>
       <path d="M 0 0 
L -3.5 0 
" id="m1accd1ad62" style="stroke:#000000;stroke-width:0.8;"/>
      </defs>
      <g>
       <use style="stroke:#000000;stroke-width:0.8;" x="60.754688" xlink:href="#m1accd1ad62" y="216.483198"/>
      </g>
     </g>
     <g id="text_4">
      <!-- −325000 -->
      <g transform="translate(7.2 220.282417)scale(0.1 -0.1)">
       <defs>
        <path d="M 678 2272 
L 4684 2272 
L 4684 1741 
L 678 1741 
L 678 2272 
z
" id="DejaVuSans-2212" transform="scale(0.015625)"/>
        <path d="M 2597 2516 
Q 3050 2419 3304 2112 
Q 3559 1806 3559 1356 
Q 3559 666 3084 287 
Q 2609 -91 1734 -91 
Q 1441 -91 1130 -33 
Q 819 25 488 141 
L 488 750 
Q 750 597 1062 519 
Q 1375 441 1716 441 
Q 2309 441 2620 675 
Q 2931 909 2931 1356 
Q 2931 1769 2642 2001 
Q 2353 2234 1838 2234 
L 1294 2234 
L 1294 2753 
L 1863 2753 
Q 2328 2753 2575 2939 
Q 2822 3125 2822 3475 
Q 2822 3834 2567 4026 
Q 2313 4219 1838 4219 
Q 1578 4219 1281 4162 
Q 984 4106 628 3988 
L 628 4550 
Q 988 4650 1302 4700 
Q 1616 4750 1894 4750 
Q 2613 4750 3031 4423 
Q 3450 4097 3450 3541 
Q 3450 3153 3228 2886 
Q 3006 2619 2597 2516 
z
" id="DejaVuSans-33" transform="scale(0.015625)"/>
        <path d="M 1228 531 
L 3431 531 
L 3431 0 
L 469 0 
L 469 531 
Q 828 903 1448 1529 
Q 2069 2156 2228 2338 
Q 2531 2678 2651 2914 
Q 2772 3150 2772 3378 
Q 2772 3750 2511 3984 
Q 2250 4219 1831 4219 
Q 1534 4219 1204 4116 
Q 875 4013 500 3803 
L 500 4441 
Q 881 4594 1212 4672 
Q 1544 4750 1819 4750 
Q 2544 4750 2975 4387 
Q 3406 4025 3406 3419 
Q 3406 3131 3298 2873 
Q 3191 2616 2906 2266 
Q 2828 2175 2409 1742 
Q 1991 1309 1228 531 
z
" id="DejaVuSans-32" transform="scale(0.015625)"/>
        <path d="M 2034 4250 
Q 1547 4250 1301 3770 
Q 1056 3291 1056 2328 
Q 1056 1369 1301 889 
Q 1547 409 2034 409 
Q 2525 409 2770 889 
Q 3016 1369 3016 2328 
Q 3016 3291 2770 3770 
Q 2525 4250 2034 4250 
z
M 2034 4750 
Q 2819 4750 3233 4129 
Q 3647 3509 3647 2328 
Q 3647 1150 3233 529 
Q 2819 -91 2034 -91 
Q 1250 -91 836 529 
Q 422 1150 422 2328 
Q 422 3509 836 4129 
Q 1250 4750 2034 4750 
z
" id="DejaVuSans-30" transform="scale(0.015625)"/>
       </defs>
       <use xlink:href="#DejaVuSans-2212"/>
       <use x="83.789062" xlink:href="#DejaVuSans-33"/>
       <use x="147.412109" xlink:href="#DejaVuSans-32"/>
       <use x="211.035156" xlink:href="#DejaVuSans-35"/>
       <use x="274.658203" xlink:href="#DejaVuSans-30"/>
       <use x="338.28125" xlink:href="#DejaVuSans-30"/>
       <use x="401.904297" xlink:href="#DejaVuSans-30"/>
      </g>
     </g>
    </g>
    <g id="ytick_2">
     <g id="line2d_4">
      <g>
       <use style="stroke:#000000;stroke-width:0.8;" x="60.754688" xlink:href="#m1accd1ad62" y="191.275813"/>
      </g>
     </g>
     <g id="text_5">
      <!-- −320000 -->
      <g transform="translate(7.2 195.075032)scale(0.1 -0.1)">
       <use xlink:href="#DejaVuSans-2212"/>
       <use x="83.789062" xlink:href="#DejaVuSans-33"/>
       <use x="147.412109" xlink:href="#DejaVuSans-32"/>
       <use x="211.035156" xlink:href="#DejaVuSans-30"/>
       <use x="274.658203" xlink:href="#DejaVuSans-30"/>
       <use x="338.28125" xlink:href="#DejaVuSans-30"/>
       <use x="401.904297" xlink:href="#DejaVuSans-30"/>
      </g>
     </g>
    </g>
    <g id="ytick_3">
     <g id="line2d_5">
      <g>
       <use style="stroke:#000000;stroke-width:0.8;" x="60.754688" xlink:href="#m1accd1ad62" y="166.068428"/>
      </g>
     </g>
     <g id="text_6">
      <!-- −315000 -->
      <g transform="translate(7.2 169.867647)scale(0.1 -0.1)">
       <use xlink:href="#DejaVuSans-2212"/>
       <use x="83.789062" xlink:href="#DejaVuSans-33"/>
       <use x="147.412109" xlink:href="#DejaVuSans-31"/>
       <use x="211.035156" xlink:href="#DejaVuSans-35"/>
       <use x="274.658203" xlink:href="#DejaVuSans-30"/>
       <use x="338.28125" xlink:href="#DejaVuSans-30"/>
       <use x="401.904297" xlink:href="#DejaVuSans-30"/>
      </g>
     </g>
    </g>
    <g id="ytick_4">
     <g id="line2d_6">
      <g>
       <use style="stroke:#000000;stroke-width:0.8;" x="60.754688" xlink:href="#m1accd1ad62" y="140.861044"/>
      </g>
     </g>
     <g id="text_7">
      <!-- −310000 -->
      <g transform="translate(7.2 144.660262)scale(0.1 -0.1)">
       <use xlink:href="#DejaVuSans-2212"/>
       <use x="83.789062" xlink:href="#DejaVuSans-33"/>
       <use x="147.412109" xlink:href="#DejaVuSans-31"/>
       <use x="211.035156" xlink:href="#DejaVuSans-30"/>
       <use x="274.658203" xlink:href="#DejaVuSans-30"/>
       <use x="338.28125" xlink:href="#DejaVuSans-30"/>
       <use x="401.904297" xlink:href="#DejaVuSans-30"/>
      </g>
     </g>
    </g>
    <g id="ytick_5">
     <g id="line2d_7">
      <g>
       <use style="stroke:#000000;stroke-width:0.8;" x="60.754688" xlink:href="#m1accd1ad62" y="115.653659"/>
      </g>
     </g>
     <g id="text_8">
      <!-- −305000 -->
      <g transform="translate(7.2 119.452878)scale(0.1 -0.1)">
       <use xlink:href="#DejaVuSans-2212"/>
       <use x="83.789062" xlink:href="#DejaVuSans-33"/>
       <use x="147.412109" xlink:href="#DejaVuSans-30"/>
       <use x="211.035156" xlink:href="#DejaVuSans-35"/>
       <use x="274.658203" xlink:href="#DejaVuSans-30"/>
       <use x="338.28125" xlink:href="#DejaVuSans-30"/>
       <use x="401.904297" xlink:href="#DejaVuSans-30"/>
      </g>
     </g>
    </g>
    <g id="ytick_6">
     <g id="line2d_8">
      <g>
       <use style="stroke:#000000;stroke-width:0.8;" x="60.754688" xlink:href="#m1accd1ad62" y="90.446274"/>
      </g>
     </g>
     <g id="text_9">
      <!-- −300000 -->
      <g transform="translate(7.2 94.245493)scale(0.1 -0.1)">
       <use xlink:href="#DejaVuSans-2212"/>
       <use x="83.789062" xlink:href="#DejaVuSans-33"/>
       <use x="147.412109" xlink:href="#DejaVuSans-30"/>
       <use x="211.035156" xlink:href="#DejaVuSans-30"/>
       <use x="274.658203" xlink:href="#DejaVuSans-30"/>
       <use x="338.28125" xlink:href="#DejaVuSans-30"/>
       <use x="401.904297" xlink:href="#DejaVuSans-30"/>
      </g>
     </g>
    </g>
    <g id="ytick_7">
     <g id="line2d_9">
      <g>
       <use style="stroke:#000000;stroke-width:0.8;" x="60.754688" xlink:href="#m1accd1ad62" y="65.238889"/>
      </g>
     </g>
     <g id="text_10">
      <!-- −295000 -->
      <g transform="translate(7.2 69.038108)scale(0.1 -0.1)">
       <defs>
        <path d="M 703 97 
L 703 672 
Q 941 559 1184 500 
Q 1428 441 1663 441 
Q 2288 441 2617 861 
Q 2947 1281 2994 2138 
Q 2813 1869 2534 1725 
Q 2256 1581 1919 1581 
Q 1219 1581 811 2004 
Q 403 2428 403 3163 
Q 403 3881 828 4315 
Q 1253 4750 1959 4750 
Q 2769 4750 3195 4129 
Q 3622 3509 3622 2328 
Q 3622 1225 3098 567 
Q 2575 -91 1691 -91 
Q 1453 -91 1209 -44 
Q 966 3 703 97 
z
M 1959 2075 
Q 2384 2075 2632 2365 
Q 2881 2656 2881 3163 
Q 2881 3666 2632 3958 
Q 2384 4250 1959 4250 
Q 1534 4250 1286 3958 
Q 1038 3666 1038 3163 
Q 1038 2656 1286 2365 
Q 1534 2075 1959 2075 
z
" id="DejaVuSans-39" transform="scale(0.015625)"/>
       </defs>
       <use xlink:href="#DejaVuSans-2212"/>
       <use x="83.789062" xlink:href="#DejaVuSans-32"/>
       <use x="147.412109" xlink:href="#DejaVuSans-39"/>
       <use x="211.035156" xlink:href="#DejaVuSans-35"/>
       <use x="274.658203" xlink:href="#DejaVuSans-30"/>
       <use x="338.28125" xlink:href="#DejaVuSans-30"/>
       <use x="401.904297" xlink:href="#DejaVuSans-30"/>
      </g>
     </g>
    </g>
    <g id="ytick_8">
     <g id="line2d_10">
      <g>
       <use style="stroke:#000000;stroke-width:0.8;" x="60.754688" xlink:href="#m1accd1ad62" y="40.031504"/>
      </g>
     </g>
     <g id="text_11">
      <!-- −290000 -->
      <g transform="translate(7.2 43.830723)scale(0.1 -0.1)">
       <use xlink:href="#DejaVuSans-2212"/>
       <use x="83.789062" xlink:href="#DejaVuSans-32"/>
       <use x="147.412109" xlink:href="#DejaVuSans-39"/>
       <use x="211.035156" xlink:href="#DejaVuSans-30"/>
       <use x="274.658203" xlink:href="#DejaVuSans-30"/>
       <use x="338.28125" xlink:href="#DejaVuSans-30"/>
       <use x="401.904297" xlink:href="#DejaVuSans-30"/>
      </g>
     </g>
    </g>
    <g id="ytick_9">
     <g id="line2d_11">
      <g>
       <use style="stroke:#000000;stroke-width:0.8;" x="60.754688" xlink:href="#m1accd1ad62" y="14.82412"/>
      </g>
     </g>
     <g id="text_12">
      <!-- −285000 -->
      <g transform="translate(7.2 18.623338)scale(0.1 -0.1)">
       <defs>
        <path d="M 2034 2216 
Q 1584 2216 1326 1975 
Q 1069 1734 1069 1313 
Q 1069 891 1326 650 
Q 1584 409 2034 409 
Q 2484 409 2743 651 
Q 3003 894 3003 1313 
Q 3003 1734 2745 1975 
Q 2488 2216 2034 2216 
z
M 1403 2484 
Q 997 2584 770 2862 
Q 544 3141 544 3541 
Q 544 4100 942 4425 
Q 1341 4750 2034 4750 
Q 2731 4750 3128 4425 
Q 3525 4100 3525 3541 
Q 3525 3141 3298 2862 
Q 3072 2584 2669 2484 
Q 3125 2378 3379 2068 
Q 3634 1759 3634 1313 
Q 3634 634 3220 271 
Q 2806 -91 2034 -91 
Q 1263 -91 848 271 
Q 434 634 434 1313 
Q 434 1759 690 2068 
Q 947 2378 1403 2484 
z
M 1172 3481 
Q 1172 3119 1398 2916 
Q 1625 2713 2034 2713 
Q 2441 2713 2670 2916 
Q 2900 3119 2900 3481 
Q 2900 3844 2670 4047 
Q 2441 4250 2034 4250 
Q 1625 4250 1398 4047 
Q 1172 3844 1172 3481 
z
" id="DejaVuSans-38" transform="scale(0.015625)"/>
       </defs>
       <use xlink:href="#DejaVuSans-2212"/>
       <use x="83.789062" xlink:href="#DejaVuSans-32"/>
       <use x="147.412109" xlink:href="#DejaVuSans-38"/>
       <use x="211.035156" xlink:href="#DejaVuSans-35"/>
       <use x="274.658203" xlink:href="#DejaVuSans-30"/>
       <use x="338.28125" xlink:href="#DejaVuSans-30"/>
       <use x="401.904297" xlink:href="#DejaVuSans-30"/>
      </g>
     </g>
    </g>
   </g>
   <g id="patch_3">
    <path d="M 60.754688 224.64 
L 60.754688 7.2 
" style="fill:none;stroke:#000000;stroke-linecap:square;stroke-linejoin:miter;stroke-width:0.8;"/>
   </g>
   <g id="patch_4">
    <path d="M 158.794262 224.64 
L 158.794262 7.2 
" style="fill:none;stroke:#000000;stroke-linecap:square;stroke-linejoin:miter;stroke-width:0.8;"/>
   </g>
   <g id="patch_5">
    <path d="M 60.754688 224.64 
L 158.794262 224.64 
" style="fill:none;stroke:#000000;stroke-linecap:square;stroke-linejoin:miter;stroke-width:0.8;"/>
   </g>
   <g id="patch_6">
    <path d="M 60.754688 7.2 
L 158.794262 7.2 
" style="fill:none;stroke:#000000;stroke-linecap:square;stroke-linejoin:miter;stroke-width:0.8;"/>
   </g>
  </g>
 </g>
 <defs>
  <clipPath id="p1d2fa6dc19">
   <rect height="217.44" width="98.039574" x="60.754688" y="7.2"/>
  </clipPath>
 </defs>
</svg>
